<svg xmlns="http://www.w3.org/2000/svg">
    <symbol id="planet" viewBox="0 0 16 16" > 
        <g>
            <path fill-rule="evenodd" clip-rule="evenodd" d="M8.33741 0.165901C8.31608 0.163493 8.29478 0.160799 8.27346 0.158103C8.20778 0.149798 8.14199 0.141479 8.07523 0.141479C8.06139 0.141479 8.04771 0.143335 8.03405 0.145186C8.02224 0.146788 8.01045 0.148387 7.9986 0.148778C7.97722 0.148387 7.95595 0.146784 7.93467 0.14518C7.91014 0.14333 7.88558 0.141479 7.86078 0.141479C3.52702 0.141479 0.00112915 3.66765 0.00112915 8.00113C0.00112915 12.3352 3.52702 15.8608 7.86078 15.8608C7.8857 15.8608 7.91038 15.859 7.93499 15.8572C7.95611 15.8557 7.97719 15.8541 7.99832 15.8538C8.0103 15.8542 8.02216 15.8557 8.03401 15.8572C8.04771 15.859 8.06139 15.8608 8.07523 15.8608C8.14549 15.8608 8.21467 15.8519 8.28378 15.8431L8.31513 15.8391L8.33741 15.8364C12.4491 15.5882 15.7204 12.1743 15.7204 8.00113C15.7204 3.82794 12.4491 0.414322 8.33741 0.165901ZM5.50794 1.54387C4.71187 2.46288 4.06513 3.78246 3.71004 5.34092C2.60576 5.22106 1.93937 5.08155 1.67074 5.01699C2.45113 3.40556 3.82695 2.16028 5.50794 1.54387ZM1.29881 5.93236C1.0925 6.58527 0.980217 7.28029 0.980217 8.00113C0.981379 8.84796 1.13996 9.6872 1.44787 10.4761C1.76253 10.4 2.46373 10.2543 3.60197 10.1308C3.48127 9.4546 3.41025 8.74302 3.41025 8.00113C3.41086 7.43445 3.45091 6.86849 3.53011 6.30737C2.20323 6.16001 1.48632 5.98288 1.29881 5.93236ZM1.87566 11.3833C2.23159 11.3075 2.86934 11.1927 3.81194 11.0942C4.18274 12.4663 4.78597 13.6258 5.5085 14.459C3.97127 13.8965 2.68366 12.8066 1.87509 11.3833H1.87566ZM4.70766 11.0103C5.21601 12.9791 6.45615 14.4396 7.29825 14.7921V10.9072C6.45615 10.9173 5.4386 10.9561 4.70766 11.0103ZM7.29825 9.92871C6.45615 9.93937 5.31004 9.9826 4.52857 10.0432C4.42106 9.39481 4.39046 8.70878 4.39046 8.00113C4.39046 7.45095 4.40113 6.91537 4.46766 6.39804C5.2612 6.46092 6.45615 6.50611 7.29825 6.51734V9.92843V9.92871ZM4.60239 5.42794C5.35523 5.48548 6.45615 5.52815 7.29825 5.53853V5.53825V1.21039C6.45615 1.58878 5.07257 3.23987 4.60239 5.42794ZM14.0255 4.96309C13.872 5.01025 13.25 5.18373 12.0197 5.32941C11.742 3.85292 11.241 2.59481 10.5875 1.68646C12.0856 2.33573 13.3039 3.50457 14.0255 4.96281V4.96309ZM11.1121 5.42653C10.651 3.21123 9.26316 1.54527 8.42106 1.1958V5.53881C9.26316 5.52843 10.3714 5.48548 11.1121 5.42653ZM8.42106 6.51734C9.26316 6.50639 10.4435 6.46008 11.2272 6.39495C11.2918 6.91313 11.3081 7.44955 11.3081 8.00113C11.3081 8.70962 11.2828 9.39678 11.1784 10.046C10.4067 9.98373 9.26316 9.93881 8.42106 9.92871V6.51734ZM8.42106 10.9072V14.8067V14.807C9.26316 14.4808 10.51 13.0077 11.0097 11.0125C10.2883 10.9569 9.26316 10.9173 8.42106 10.9072ZM10.5875 14.3164C11.1764 13.4978 11.6455 12.3992 11.9349 11.1088C12.9027 11.2202 13.5124 11.3499 13.8198 11.4274C13.0797 12.7118 11.9466 13.7245 10.5875 14.3164ZM12.1679 6.29671C12.3156 7.57569 12.2957 8.86847 12.1089 10.1423L12.1092 10.142C13.3039 10.2824 13.9834 10.4514 14.2538 10.5303C14.5653 9.74653 14.7422 8.8946 14.7422 8.00113C14.7418 7.11797 14.5702 6.24327 14.2369 5.42541L14.395 5.87173C14.3506 5.88744 13.6808 6.11509 12.1679 6.29671Z" />
        </g>
    </symbol>
    <symbol id="bird" viewBox="0 0 14 8" >
        <g>
            <path d="M1.4175 0L0 1.34583L7 8L14 1.34583L12.5825 0L7 5.30417L1.4175 0Z"/>
        </g>
    </symbol>
    <symbol id="basket" viewBox="0 0 19 23" >
        <g>
            <path fill-rule="evenodd" clip-rule="evenodd" d="M18.9474 6.85876H0V18.6482C0 20.8574 1.79086 22.6482 4 22.6482H14.9474C17.1565 22.6482 18.9474 20.8574 18.9474 18.6482V6.85876ZM4 21.1482C2.61929 21.1482 1.5 20.029 1.5 18.6482V8.35876H17.4474V18.6482C17.4474 20.029 16.3281 21.1482 14.9474 21.1482H4Z"/>
            <path d="M6.01315 12.06V5.86806C6.01315 3.95686 7.56248 2.40753 9.47368 2.40753C11.3849 2.40753 12.9342 3.95686 12.9342 5.86806V12.06C12.9342 12.4742 13.27 12.81 13.6842 12.81C14.0984 12.81 14.4342 12.4742 14.4342 12.06V5.86806C14.4342 3.12844 12.2133 0.907532 9.47368 0.907532C6.73406 0.907532 4.51315 3.12844 4.51315 5.86806V12.06C4.51315 12.4742 4.84894 12.81 5.26315 12.81C5.67737 12.81 6.01315 12.4742 6.01315 12.06Z"/>
        </g>
    </symbol>
    <symbol id="insta" viewBox="0 0 24 24">
        <g>
            <path fill-rule="evenodd" clip-rule="evenodd" d="M16.0325 3H7.96724C5.22831 3 3 5.22841 3 7.96735V16.0327C3 18.7717 5.22831 21 7.96724 21H16.0325C18.7717 21 21 18.7716 21 16.0327V7.96735C21.0001 5.22841 18.7717 3 16.0325 3ZM20.0001 16.3579C20.0001 18.3662 18.3662 20 16.3579 20H7.642C5.6338 20.0001 4 18.3662 4 16.3579V7.64212C4 5.63392 5.6338 4 7.642 4H16.3578C18.3661 4 20 5.63392 20 7.64212V16.3579H20.0001ZM7.36186 12.0002C7.36186 9.4427 9.44249 7.36207 12 7.36207C14.5575 7.36207 16.6381 9.4427 16.6381 12.0002C16.6381 14.5576 14.5575 16.6381 12 16.6381C9.44249 16.6381 7.36186 14.5576 7.36186 12.0002ZM16.4349 5.83418C16.5833 5.68509 16.7898 5.6 17 5.6C17.2109 5.6 17.4175 5.68509 17.5658 5.83418C17.7149 5.98255 17.8 6.18909 17.8 6.4C17.8 6.61018 17.7149 6.81673 17.5658 6.96582C17.4167 7.11418 17.2109 7.2 17 7.2C16.7898 7.2 16.5833 7.11418 16.4349 6.96582C16.2858 6.81673 16.2 6.61025 16.2 6.4C16.2 6.18909 16.2857 5.98255 16.4349 5.83418Z" />
            <mask id="mask0" mask-type="alpha" maskUnits="userSpaceOnUse" x="7" y="5" width="11" height="12">
            <path fill-rule="evenodd" clip-rule="evenodd" d="M16.4349 5.83416C16.5833 5.68507 16.7898 5.59998 17 5.59998C17.2109 5.59998 17.4175 5.68507 17.5658 5.83416C17.7149 5.98252 17.8 6.18907 17.8 6.39998C17.8 6.61016 17.7149 6.8167 17.5658 6.96579C17.4167 7.11416 17.2109 7.19998 17 7.19998C16.7898 7.19998 16.5833 7.11416 16.4349 6.96579C16.2858 6.8167 16.2 6.61023 16.2 6.39998C16.2 6.18907 16.2857 5.98252 16.4349 5.83416ZM12 7.36204C9.44245 7.36204 7.36182 9.44268 7.36182 12.0002C7.36182 14.5576 9.44245 16.6381 12 16.6381C14.5575 16.6381 16.6381 14.5576 16.6381 12.0002C16.6381 9.44268 14.5575 7.36204 12 7.36204ZM12 15.8397C9.88274 15.8397 8.16003 14.1173 8.16003 12C8.16003 9.88255 9.88261 8.15998 12 8.15998C14.1175 8.15998 15.84 9.88255 15.84 12C15.84 14.1173 14.1173 15.8397 12 15.8397Z"/>
            </mask>
            
        </g>
    </symbol>
</svg>




